<?xml version="1.0" encoding="UTF-8"?>
<svg width="40px" height="40px" viewBox="0 0 40 40" version="1.1" xmlns="http://www.w3.org/2000/svg" xmlns:xlink="http://www.w3.org/1999/xlink">
    <!-- Generator: Sketch 52.5 (67469) - http://www.bohemiancoding.com/sketch -->
    <title>assignment_late@</title>
    <desc>Created with Sketch.</desc>
    <g id="11/14" stroke="none" stroke-width="1" fill="none" fill-rule="evenodd">
        <g id="assignment_late@">
            <path d="M30.049,6.516 C28.15827,5.09413373 25.9880705,4.08843985 23.681,3.565 C24.1218434,2.53556053 24.1051242,1.36740135 23.635,0.351 C26.7331351,0.922735903 29.6517994,2.2201485 32.152,4.137 C31.0521173,4.46004305 30.2346533,5.38479201 30.049,6.516 Z M20,4 C18.8954305,4 18,3.1045695 18,2 C18,0.8954305 18.8954305,0 20,0 C21.1045695,0 22,0.8954305 22,2 C22,3.1045695 21.1045695,4 20,4 Z" id="assignment_due" fill="#F6504D"></path>
            <path d="M20,40 C9.66316941,40.0023911 1.02884373,32.1247892 0.0857589588,21.8310696 C-0.857325808,11.53735 6.20182033,2.22195165 16.367,0.346 C15.8938027,1.36562693 15.8774361,2.5385671 16.322,3.571 C9.02435072,5.19274395 3.66482537,11.4245965 3.15355376,18.8827692 C2.64228214,26.3409418 7.10125668,33.2458708 14.1093311,35.8482987 C21.1174056,38.4507266 29.0024121,36.1296989 33.4829282,30.1454935 C37.9634443,24.1612882 37.9703925,15.9417718 33.5,9.95 C34.623858,9.76043693 35.5417871,8.94764674 35.866,7.855 C40.506557,13.8909712 41.3116274,22.0403066 37.9418303,28.8676183 C34.5720332,35.69493 27.6136432,40.0124077 20,40 Z" id="assignment_due-2" fill="#B8B8B8"></path>
            <path d="M35.414,4.586 C36.195,5.367 22.195,20.633 21.414,21.414 C20.6292422,22.1719444 19.3818304,22.1611047 18.6103628,21.3896372 C17.8388953,20.6181696 17.8280556,19.3707578 18.586,18.586 C19.367,17.805 34.633,3.805 35.414,4.586 Z" id="Path" fill="#F6504D"></path>
        </g>
    </g>
</svg>