<?xml version="1.0" encoding="UTF-8" standalone="no"?>
<svg width="70px" height="70px" viewBox="0 0 70 70" version="1.1" xmlns="http://www.w3.org/2000/svg" xmlns:xlink="http://www.w3.org/1999/xlink">
    <!-- Generator: Sketch 3.8.3 (29802) - http://www.bohemiancoding.com/sketch -->
    <title>question-multiple</title>
    <desc>Created with Sketch.</desc>
    <defs>
        <rect id="path-1" x="5" y="10" width="60" height="13" rx="2"></rect>
        <mask id="mask-2" maskContentUnits="userSpaceOnUse" maskUnits="objectBoundingBox" x="0" y="0" width="60" height="13" fill="white">
            <use xlink:href="#path-1"></use>
        </mask>
        <rect id="path-3" x="10" y="28" width="50" height="13" rx="2"></rect>
        <mask id="mask-4" maskContentUnits="userSpaceOnUse" maskUnits="objectBoundingBox" x="0" y="0" width="50" height="13" fill="white">
            <use xlink:href="#path-3"></use>
        </mask>
        <rect id="path-5" x="10" y="46" width="50" height="13" rx="2"></rect>
        <mask id="mask-6" maskContentUnits="userSpaceOnUse" maskUnits="objectBoundingBox" x="0" y="0" width="50" height="13" fill="white">
            <use xlink:href="#path-5"></use>
        </mask>
        <path d="M12.5,20 C14.4329966,20 16,18.4329966 16,16.5 C16,14.5670034 14.4329966,13 12.5,13 C10.5670034,13 9,14.5670034 9,16.5 C9,18.4329966 10.5670034,20 12.5,20 Z" id="path-7"></path>
        <mask id="mask-8" maskContentUnits="userSpaceOnUse" maskUnits="objectBoundingBox" x="0" y="0" width="7" height="7" fill="white">
            <use xlink:href="#path-7"></use>
        </mask>
        <path d="M16.5,38 C18.4329966,38 20,36.4329966 20,34.5 C20,32.5670034 18.4329966,31 16.5,31 C14.5670034,31 13,32.5670034 13,34.5 C13,36.4329966 14.5670034,38 16.5,38 Z" id="path-9"></path>
        <mask id="mask-10" maskContentUnits="userSpaceOnUse" maskUnits="objectBoundingBox" x="0" y="0" width="7" height="7" fill="white">
            <use xlink:href="#path-9"></use>
        </mask>
        <path d="M16.5,56 C18.4329966,56 20,54.4329966 20,52.5 C20,50.5670034 18.4329966,49 16.5,49 C14.5670034,49 13,50.5670034 13,52.5 C13,54.4329966 14.5670034,56 16.5,56 Z" id="path-11"></path>
        <mask id="mask-12" maskContentUnits="userSpaceOnUse" maskUnits="objectBoundingBox" x="0" y="0" width="7" height="7" fill="white">
            <use xlink:href="#path-11"></use>
        </mask>
    </defs>
    <g id="Page-1" stroke="none" stroke-width="1" fill="none" fill-rule="evenodd">
        <g id="question-multiple">
            <g id="Rectangle-2">
                <use fill="#FFFFFF" xlink:href="#path-1"></use>
                <use stroke="#3FB34F" mask="url(#mask-2)" stroke-width="2" fill-opacity="0.15" fill="#3FB34F" xlink:href="#path-1"></use>
            </g>
            <use id="Rectangle-2-Copy" stroke="#E2E2E2" mask="url(#mask-4)" stroke-width="2" fill="#FFFFFF" xlink:href="#path-3"></use>
            <use id="Rectangle-2-Copy-2" stroke="#E2E2E2" mask="url(#mask-6)" stroke-width="2" fill="#FFFFFF" xlink:href="#path-5"></use>
            <use id="Oval-1" stroke="#3FB34F" mask="url(#mask-8)" stroke-width="2" fill="#E2F4E5" xlink:href="#path-7"></use>
            <use id="Oval-1" stroke="#C5C5C5" mask="url(#mask-10)" stroke-width="2" fill="#F3F3F3" xlink:href="#path-9"></use>
            <use id="Oval-1" stroke="#C5C5C5" mask="url(#mask-12)" stroke-width="2" fill="#F3F3F3" xlink:href="#path-11"></use>
            <circle id="Oval-4" fill="#3FB34F" cx="12.5" cy="16.5" r="1.5"></circle>
        </g>
    </g>
</svg>